<svg width="600" height="130" viewBox="0 0 600 130" xmlns="http://www.w3.org/2000/svg">
  <rect width="600" height="130" rx="12" fill="#161b22"/>

  <!-- PT -->
  <rect x="10" y="10" width="130" height="110" rx="10" fill="#0d1117" stroke="#30363d"/>
  <rect x="55" y="28" width="40" height="24" fill="#046A38"/>
  <rect x="71" y="28" width="24" height="24" fill="#DA291C"/>
  <circle cx="71" cy="40" r="5" fill="#FFD100"/>
  <text x="75" y="72" text-anchor="middle" font-family="Segoe UI, Arial" font-size="13" font-weight="600" fill="#e6edf3">Portuguese</text>
  <text x="75" y="86" text-anchor="middle" font-family="Segoe UI, Arial" font-size="10" fill="#8b949e">NATIVE</text>
  <rect x="22" y="92" width="106" height="4" rx="2" fill="#21262d"/>
  <rect x="22" y="92" width="106" height="4" rx="2" fill="#7c3aed"/>

  <!-- UK -->
  <rect x="152" y="10" width="130" height="110" rx="10" fill="#0d1117" stroke="#30363d"/>
  <rect x="197" y="28" width="40" height="24" fill="#012169"/>
  <rect x="214" y="28" width="6" height="24" fill="white"/>
  <rect x="197" y="37" width="40" height="6" fill="white"/>
  <rect x="215" y="28" width="4" height="24" fill="#C8102E"/>
  <rect x="197" y="38" width="40" height="4" fill="#C8102E"/>
  <text x="217" y="72" text-anchor="middle" font-family="Segoe UI, Arial" font-size="13" font-weight="600" fill="#e6edf3">English</text>
  <text x="217" y="86" text-anchor="middle" font-family="Segoe UI, Arial" font-size="10" fill="#8b949e">ADVANCED</text>
  <rect x="164" y="92" width="106" height="4" rx="2" fill="#21262d"/>
  <rect x="164" y="92" width="85" height="4" rx="2" fill="#06b6d4"/>

  <!-- DE -->
  <rect x="294" y="10" width="130" height="110" rx="10" fill="#0d1117" stroke="#30363d"/>
  <rect x="339" y="28" width="40" height="8" fill="#000"/>
  <rect x="339" y="36" width="40" height="8" fill="#DD0000"/>
  <rect x="339" y="44" width="40" height="8" fill="#FFCE00"/>
  <text x="359" y="72" text-anchor="middle" font-family="Segoe UI, Arial" font-size="13" font-weight="600" fill="#e6edf3">German</text>
  <text x="359" y="86" text-anchor="middle" font-family="Segoe UI, Arial" font-size="10" fill="#8b949e">INTERMEDIATE</text>
  <rect x="306" y="92" width="106" height="4" rx="2" fill="#21262d"/>
  <rect x="306" y="92" width="45" height="4" rx="2" fill="#f59e0b"/>

  <!-- FR -->
  <rect x="436" y="10" width="154" height="110" rx="10" fill="#0d1117" stroke="#30363d"/>
  <rect x="493" y="28" width="13.3" height="24" fill="#0055A4"/>
  <rect x="506.3" y="28" width="13.3" height="24" fill="#FFFFFF"/>
  <rect x="519.6" y="28" width="13.4" height="24" fill="#EF4135"/>
  <text x="513" y="72" text-anchor="middle" font-family="Segoe UI, Arial" font-size="13" font-weight="600" fill="#e6edf3">French</text>
  <text x="513" y="86" text-anchor="middle" font-family="Segoe UI, Arial" font-size="10" fill="#8b949e">BASIC</text>
  <rect x="448" y="92" width="130" height="4" rx="2" fill="#21262d"/>
  <rect x="448" y="92" width="26" height="4" rx="2" fill="#10b981"/>
</svg>